# AST/ASF file generated using VICON BodyLanguage
# -----------------------------------------------
:version 1.10
:name VICON
:units
  mass 1.0
  length 0.45
  angle deg
:documentation
   .ast/.asf automatically generated from VICON data using
   VICON BodyBuilder and BodyLanguage model FoxedUp or BRILLIANT.MOD
:root
   order TX TY TZ RX RY RZ
   axis XYZ
   position 0 0 0  
   orientation 0 0 0 
:bonedata
  begin
     id 1 
     name lhipjoint
     direction 0.547975 -0.797114 0.253638 
     length 2.36201 
     axis 0 0 0  XYZ
  end
  begin
     id 2 
     name lfemur
     direction 0.34202 -0.939693 0  
     length 7.69075  
     axis 0 0 20  XYZ
    dof rx ry rz
    limits (-160.0 20.0)
           (-70.0 70.0)
           (-60.0 70.0)
  end
  begin
     id 3 
     name ltibia
     direction 0.34202 -0.939693 0   
     length 7.91399   
     axis 0 0 20   XYZ
    dof rx
    limits (-10.0 170.0)
  end
  begin
     id 4 
     name lfoot
     direction 0.0705293 -0.193778 0.978507   
     length 2.13618   
     axis -90 7.62852e-016 20   XYZ
    dof rx rz
    limits (-45.0 90.0)
           (-70.0 20.0)
  end
  begin
     id 5 
     name ltoes
     direction 1.53592e-011 -4.21925e-011 1   
     length 1.07518   
     axis -90 7.62852e-016 20   XYZ
    dof rx
    limits (-90.0 20.0)
  end
  begin
     id 6 
     name rhipjoint
     direction -0.57 -0.782963 0.249136   
     length 2.4047  
     axis 0 0 0  XYZ 
  end
  begin
     id 7 
     name rfemur
     direction -0.34202 -0.939693 0   
     length 7.51486   
     axis 0 0 -20   XYZ
    dof rx ry rz
    limits (-160.0 20.0)
           (-70.0 70.0)
           (-70.0 60.0)
  end
  begin
     id 8 
     name rtibia
     direction -0.34202 -0.939693 0   
     length 8.08317   
     axis 0 0 -20   XYZ
    dof rx
    limits (-10.0 170.0)
 end
 begin
     id 9 
     name rfoot
     direction -0.104954 -0.281256 0.953876   
     length 2.30343  
     axis -90 -7.62852e-016 -20   XYZ
    dof rx rz
    limits (-45.0 90.0)
           (-20.0 70.0)
  end
  begin
     id 10 
     name rtoes
     direction -1.53556e-011 -4.21922e-011 1   
     length 1.14803   
     axis -90 -7.62852e-016 -20   XYZ
    dof rx
    limits (-90.0 20.0)
  end
  begin
     id 11 
     name lowerback
     direction -0.0152855 0.99353 -0.11254   
     length 2.05311   
     axis 0 0 0   XYZ
    dof rx ry rz
    limits (-20.0 45.0)
           (-30.0 30.0)
           (-30.0 30.0)
  end
  begin
     id 12 
     name upperback
     direction -0.00157509 0.999443 -0.033332   
     length 2.06353   
     axis 0 0 0   XYZ
    dof rx ry rz
    limits (-20.0 45.0)
           (-30.0 30.0)
           (-30.0 30.0)
  end
  begin
     id 13 
     name thorax
     direction 0.00577788 0.999804 0.0189484   
     length 2.08472   
     axis 0 0 0   XYZ
    dof rx ry rz
    limits (-20.0 45.0)
           (-30.0 30.0)
           (-30.0 30.0)
  end
  begin
     id 14 
     name lowerneck
     direction -1.09301e-005 0.994719 0.10264   
     length 1.76249   
     axis 0 0 0   XYZ
    dof rx ry rz
    limits (-20.0 45.0)
           (-30.0 30.0)
           (-30.0 30.0)
  end
  begin
     id 15 
     name upperneck
     direction 0.0495018 0.988526 -0.142706   
     length 1.77897   
     axis 0 0 0   XYZ
    dof rx ry rz
    limits (-20.0 45.0)
           (-30.0 30.0)
           (-30.0 30.0)
  end
  begin
     id 16
     name head
     direction 0.0142736 0.998114 -0.0597101  
     length 1.78934  
     axis 0 0 0   XYZ
    dof rx ry rz
    limits (-20.0 45.0)
           (-30.0 30.0)
           (-30.0 30.0)
  end
  begin
     id 17 
     name lclavicle
     direction 0.918111 0.396107 -0.0130883  
     length 3.37276  
     axis 0 0 0   XYZ
    dof ry rz
    limits (-20.0 10.0)
           (0.0 20.0)
  end
  begin
     id 18 
     name lhumerus
     direction 1 -4.48975e-011 -3.26108e-027   
     length 5.34298   
     axis 180 -30 -90   XYZ
    dof rx ry rz
    limits (-60.0 90.0)
           (-90.0 90.0)
           (-90.0 90.0)
  end
  begin
     id 19
     name lradius
     direction 1 -4.48964e-011 -8.84413e-028   
     length 3.67262   
     axis 180 -30 -90   XYZ
    dof rx
    limits (-10.0 170.0)
  end
  begin
     id 20
     name lwrist
     direction 1 -4.48991e-011 -1.24264e-027   
     length 1.83631   
     axis -2.17013e-015 90 90   XYZ
    dof ry
    limits (-180.0 0.0)
 end
  begin
     id 21 
     name lhand
     direction 1 -4.48855e-011 -2.48528e-027   
     length 0.599298   
     axis 1.58582e-015 90 90   XYZ
    dof rx rz
    limits (-90.0 90.0)
           (-45.0 45.0)
  end
  begin
     id 22 
     name lfingers
     direction 1 -4.48811e-011 -4.97056e-027   
     length 0.48317   
     axis 3.17164e-015 90 90   XYZ
    dof rx
    limits (0.0 90.0)
  end
  begin
     id 23
     name lthumb
     direction 0.707107 -6.34882e-011 0.707107   
     length 0.693738   
     axis -90 45 2.85299e-015   XYZ
    dof rx rz
    limits (-45.0 45.0)
           (-45.0 45.0)
  end
  begin
     id 24 
     name rclavicle
     direction -0.920511 0.384752 -0.0680135   
     length 3.43787  
     axis 0 0 0   XYZ 
    dof ry rz
    limits (-10.0 20.0)
           (-20.0 0.0)
  end
  begin
     id 25 
     name rhumerus
     direction -0.999976 -0.00330524 0.00603274  
     length 5.5498   
     axis 180 30 90   XYZ
    dof rx ry rz
    limits (-90.0 60.0)
           (-90.0 90.0)
           (-90.0 90.0)
  end
  begin
     id 26 
     name rradius
     direction -1 -4.48967e-011 8.62438e-027   
     length 3.69401   
     axis 180 30 90   XYZ
    dof rx
    limits (-10.0 170.0)
  end
  begin
     id 27 
     name rwrist
     direction -1 -4.4897e-011 9.54866e-027   
     length 1.84701   
     axis -7.69462e-015 -90 -90   XYZ
    dof ry
    limits (-180.0 0.0)
  end
  begin
     id 28
     name rhand
     direction -1 -4.48982e-011 1.90973e-026   
     length 0.638113   
     axis -1.21857e-014 -90 -90   XYZ
    dof rx rz
    limits (-90.0 90.0)
           (-45.0 45.0)
  end
  begin
     id 29
     name rfingers
     direction -1 -4.48936e-011 3.81946e-026   
     length 0.514463   
     axis -2.43714e-014 -90 -90   XYZ
    dof rx
    limits (0.0 90.0)
  end
  begin
     id 30
     name rthumb
     direction -0.707107 -6.34942e-011 0.707107   
     length 0.738669   
     axis -90 -45 -2.85299e-015   XYZ
    dof rx rz
    limits (-45.0 45.0)
           (-45.0 45.0)
  end
:hierarchy
  begin
    root lhipjoint rhipjoint lowerback
    lhipjoint lfemur
    lfemur ltibia
    ltibia lfoot
    lfoot ltoes
    rhipjoint rfemur
    rfemur rtibia
    rtibia rfoot
    rfoot rtoes
    lowerback upperback
    upperback thorax
    thorax lowerneck lclavicle rclavicle
    lowerneck upperneck
    upperneck head
    lclavicle lhumerus
    lhumerus lradius
    lradius lwrist
    lwrist lhand lthumb
    lhand lfingers
    rclavicle rhumerus
    rhumerus rradius
    rradius rwrist
    rwrist rhand rthumb
    rhand rfingers
  end

#!OML:ASF F:\twosubjects\two\Thursday\Session 1\Rory.ASF
:FULLY-SPECIFIED
:DEGREES
97
root 15.8888 18.5044 0.508526 -175.116 4.25416 172.562
lowerback 0.592651 -1.73727 -11.0587
upperback 0.234654 -2.06552 -3.29033
thorax 0.20405 -0.91083 2.76532
lowerneck -6.11904 -2.43417 -4.04872
upperneck 0.928623 -2.76345 16.262
head 1.6078 -0.768786 5.50483
rclavicle 9.93923e-017 -5.56597e-014
rhumerus -40.4043 -12.5828 -79.3249
rradius 27.398
rwrist 18.9699
rhand -20.3353 22.1613
rfingers 7.12502
rthumb 6.0161 -7.73333
lclavicle 9.93923e-017 -5.56597e-014
lhumerus 1.41401 26.6261 87.8843
lradius 50.8518
lwrist 62.0369
lhand -2.68522 37.0422
lfingers 7.12502
lthumb 23.016 65.6879
rfemur -29.1512 -1.5962 10.9023
rtibia 59.1393
rfoot -9.97484 -10.0254
rtoes 0.757482
lfemur -8.02448 2.57272 -30.5518
ltibia 24.39
lfoot -13.4368 2.2161
ltoes -10.4013
98
root 15.9024 18.51 0.367373 -175.09 4.01489 172.361
lowerback 0.775098 -1.92736 -11.3167
upperback 0.17579 -2.34019 -3.33407
thorax 0.0850446 -1.03452 2.86529
lowerneck -6.24027 -2.4656 -4.13063
upperneck 1.13935 -2.81609 16.6083
head 1.70395 -0.762845 5.62567
rclavicle -1.15295e-014 -1.03368e-014
rhumerus -40.8248 -13.3037 -78.9741
rradius 27.0926
rwrist 19.1516
rhand -21.6958 22.0398
rfingers 7.12502
rthumb 4.70255 -7.88797
lclavicle -1.15295e-014 -1.03368e-014
lhumerus 3.98774 27.0546 88.3426
lradius 50.9454
lwrist 62.9028
lhand -1.27671 33.9181
lfingers 7.12502
lthumb 24.367 62.3889
rfemur -29.8245 -1.45812 10.6907
rtibia 57.5115
rfoot -10.5348 -10.3057
rtoes 0.840904
lfemur -7.39273 2.24548 -30.7205
ltibia 24.1285
lfoot -13.2468 3.11278
ltoes -12.1219
99
root 15.9138 18.4982 0.222559 -175.036 3.91194 172.071
lowerback 0.703393 -2.10323 -11.6505
upperback 0.243893 -2.54409 -3.37898
thorax 0.238521 -1.13934 2.99449
lowerneck -6.56066 -2.44432 -4.14897
upperneck 1.24042 -2.79613 16.6835
head 1.7875 -0.730032 5.65265
rclavicle 7.95139e-015 7.95139e-016
rhumerus -40.9377 -13.9741 -78.5897
rradius 26.6011
rwrist 19.5371
rhand -23.9773 21.6522
rfingers 7.12502
rthumb 2.49927 -8.31292
lclavicle 7.95139e-015 7.95139e-016
lhumerus 6.73262 27.3769 88.9556
lradius 50.9489
lwrist 62.6883
lhand -0.276778 32.3952
lfingers 7.12502
lthumb 25.3252 60.7338
rfemur -30.501 -1.1702 10.32
rtibia 55.8136
rfoot -11.1381 -10.512
rtoes 1.25068
lfemur -6.82213 2.26366 -30.9748
ltibia 23.8515
lfoot -13.1759 3.31596
ltoes -12.6191
100
root 15.9268 18.5081 0.0741221 -174.996 3.97983 172.045
lowerback 0.550839 -2.15582 -11.7675
upperback 0.292367 -2.58589 -3.35295
thorax 0.388014 -1.1693 3.0779
lowerneck -6.51641 -2.43552 -4.00103
upperneck 1.14903 -2.78369 16.5413
head 1.74678 -0.734633 5.58293
rclavicle 3.25013e-014 6.83819e-014
rhumerus -41.1892 -14.8276 -78.1385
rradius 26.1771
rwrist 19.794
rhand -24.2487 20.0839
rfingers 7.12502
rthumb 2.2372 -9.88416
lclavicle 3.25013e-014 6.83819e-014
lhumerus 8.74849 26.6536 88.8211
lradius 51.117
lwrist 62.6013
lhand -0.166414 31.1787
lfingers 7.12502
lthumb 25.431 59.5023
rfemur -31.0749 -0.783845 10.2547
rtibia 53.935
rfoot -11.6323 -10.8309
rtoes 2.38286
lfemur -6.12704 2.42019 -30.9477
ltibia 23.4034
lfoot -13.1331 3.1839
ltoes -13.0518
101
root 15.9427 18.5207 -0.0748021 -174.882 3.95307 172.082
lowerback 0.406675 -2.18445 -11.8991
upperback 0.242545 -2.61471 -3.24841
thorax 0.431531 -1.18807 3.25353
lowerneck -6.21915 -2.47106 -3.91517
upperneck 0.976192 -2.818 16.4372
head 1.64621 -0.777167 5.53468
rclavicle -3.47873e-015 8.74653e-014
rhumerus -41.7865 -15.3119 -77.7104
rradius 26.1956
rwrist 19.7247
rhand -22.2234 18.1368
rfingers 7.12502
rthumb 4.19303 -11.8017
lclavicle -3.47873e-015 8.74653e-014
lhumerus 10.5487 25.9862 88.6657
lradius 51.3788
lwrist 62.8291
lhand -1.2611 31.1357
lfingers 7.12502
lthumb 24.3819 59.6045
rfemur -31.6073 -0.0914823 10.2321
rtibia 51.9247
rfoot -11.6716 -11.8157
rtoes 0.789276
lfemur -5.43654 2.45359 -30.8526
ltibia 22.8097
lfoot -13.0035 3.24135
ltoes -14.251
102
root 15.9609 18.5234 -0.225397 -174.852 3.74516 171.714
lowerback 0.459258 -2.31684 -12.3716
upperback 0.179326 -2.79222 -3.25674
thorax 0.385456 -1.26619 3.50215
lowerneck -6.20287 -2.46634 -3.90554
upperneck 1.00804 -2.82119 16.3783
head 1.65157 -0.782226 5.51452
rclavicle -2.18663e-014 1.35174e-014
rhumerus -42.3786 -15.5746 -77.329
rradius 26.2032
rwrist 19.7011
rhand -20.9679 17.5745
rfingers 7.12502
rthumb 5.4053 -12.3366
lclavicle -2.18663e-014 1.35174e-014
lhumerus 12.7903 26.3112 89.1526
lradius 51.5966
lwrist 62.2377
lhand -1.15781 31.924
lfingers 7.12502
lthumb 24.4809 60.3795
rfemur -31.8882 0.616348 9.6779
rtibia 49.7631
rfoot -11.4209 -12.9527
rtoes -1.61505
lfemur -4.60184 2.30709 -31.1753
ltibia 22.0864
lfoot -12.7501 3.20925
ltoes -15.2692
103
root 15.9807 18.5293 -0.37375 -174.882 3.57136 171.355
lowerback 0.585631 -2.43113 -12.8302
upperback 0.199539 -2.94901 -3.27665
thorax 0.38385 -1.33861 3.73207
lowerneck -6.51744 -2.43997 -3.94947
upperneck 1.16136 -2.80606 16.362
head 1.74813 -0.756351 5.51674
rclavicle -6.65929e-015 -2.38542e-015
rhumerus -42.5701 -15.5516 -77.4422
rradius 25.8544
rwrist 18.0025
rhand -22.1864 18.595
rfingers 7.12502
rthumb 4.22882 -11.3428
lclavicle -6.65929e-015 -2.38542e-015
lhumerus 13.3275 25.171 88.3357
lradius 53.3774
lwrist 63.1114
lhand -0.240019 31.5641
lfingers 7.12502
lthumb 25.3605 59.8976
rfemur -32.0863 1.04122 9.14342
rtibia 47.4707
rfoot -11.2703 -13.6034
rtoes -2.0841
lfemur -3.70295 2.0944 -31.4843
ltibia 21.3582
lfoot -12.4724 3.2453
ltoes -15.8226
104
root 15.998 18.5504 -0.51802 -174.661 3.59595 171.423
lowerback 0.441842 -2.49423 -12.8643
upperback 0.247506 -3.01186 -3.19298
thorax 0.531451 -1.38353 3.82912
lowerneck -6.86922 -2.45839 -3.92436
upperneck 1.06293 -2.815 16.3603
head 1.77967 -0.746925 5.51036
rclavicle 1.02374e-014 2.8625e-014
rhumerus -42.6942 -16.5177 -76.7198
rradius 25.6252
rwrist 20.0449
rhand -21.578 21.092
rfingers 7.12502
rthumb 4.81627 -8.83327
lclavicle 1.02374e-014 2.8625e-014
lhumerus 14.2136 24.3877 87.6801
lradius 54.8723
lwrist 64.0551
lhand 0.0419067 30.7506
lfingers 7.12502
lthumb 25.6305 59.0456
rfemur -32.5422 1.80028 9.01992
rtibia 45.0977
rfoot -11.3415 -14.3502
rtoes -1.68897
lfemur -3.02601 1.85959 -31.3756
ltibia 20.5541
lfoot -12.1497 3.45681
ltoes -15.981
105
root 16.0124 18.5711 -0.664237 -174.362 3.68231 171.438
lowerback 0.268457 -2.60959 -12.8658
upperback 0.221278 -3.14607 -3.12279
thorax 0.626707 -1.45767 3.89289
lowerneck -7.23272 -2.44627 -3.89766
upperneck 1.07668 -2.80298 16.3011
head 1.84215 -0.726459 5.48682
rclavicle -2.39536e-014 2.22639e-014
rhumerus -42.7745 -15.9679 -77.1006
rradius 25.4057
rwrist 18.1716
rhand -21.3185 22.4893
rfingers 7.12502
rthumb 5.06682 -7.43016
lclavicle -2.39536e-014 2.22639e-014
lhumerus 15.029 23.8942 86.9468
lradius 55.8797
lwrist 65.2607
lhand 0.413976 26.4422
lfingers 7.12502
lthumb 25.9868 54.6854
rfemur -32.9848 2.87703 8.6596
rtibia 42.6542
rfoot -11.4766 -15.1569
rtoes 2.06748
lfemur -2.39855 1.72847 -31.3395
ltibia 19.7492
lfoot -11.8646 3.57578
ltoes -16.3048
106
root 16.0277 18.575 -0.81505 -174.193 3.60296 171.264
lowerback 0.206381 -2.74716 -13.0996
upperback 0.170521 -3.32879 -3.01184
thorax 0.65792 -1.55124 4.12916
lowerneck -7.58066 -2.41992 -4.18414
upperneck 1.41232 -2.80458 16.337
head 2.00378 -0.705889 5.5471
rclavicle 3.05134e-014 -1.66979e-014
rhumerus -43.1663 -16.515 -76.1374
rradius 25.1899
rwrist 20.7208
rhand -19.844 22.5055
rfingers 7.12502
rthumb 6.4904 -7.37509
lclavicle 3.05134e-014 -1.66979e-014
lhumerus 15.3996 22.9823 86.1034
lradius 56.7634
lwrist 65.7921
lhand 0.424609 18.7939
lfingers 7.12502
lthumb 25.997 47.0356
rfemur -33.2167 3.61177 8.10906
rtibia 40.1521
rfoot -11.3901 -15.8178
rtoes 5.4171
lfemur -1.69652 1.93707 -31.4323
ltibia 19.0004
lfoot -11.5973 3.24242
ltoes -17.4965
107
root 16.0458 18.5773 -0.970816 -174 3.62619 171.29
lowerback 0.00669861 -2.76181 -13.1064
upperback 0.10832 -3.3314 -2.91147
thorax 0.710818 -1.5579 4.22981
lowerneck -7.52314 -2.47167 -4.37355
upperneck 1.32172 -2.85506 16.3775
head 1.97675 -0.740672 5.5896
rclavicle -7.10655e-015 6.04305e-014
rhumerus -43.5321 -17.1054 -75.5053
rradius 24.6419
rwrist 21.2406
rhand -20.7829 21.3586
rfingers 7.12502
rthumb 5.58393 -8.54785
lclavicle -7.10655e-015 6.04305e-014
lhumerus 15.6387 21.5161 85.2462
lradius 57.9687
lwrist 64.1924
lhand -2.45802 13.5398
lfingers 7.12502
lthumb 23.234 42.1582
rfemur -33.4553 4.36897 7.84185
rtibia 37.6633
rfoot -11.2628 -16.4965
rtoes 5.13648
lfemur -0.91087 2.17072 -31.3095
ltibia 18.0363
lfoot -11.1549 2.97122
ltoes -18.5389
108
root 16.0635 18.593 -1.12713 -173.771 3.74572 171.345
lowerback -0.147145 -2.72301 -12.8926
upperback -0.0311411 -3.26358 -3.00266
thorax 0.62132 -1.51063 4.01732
lowerneck -7.23271 -2.50105 -4.24687
upperneck 0.978914 -2.85011 16.3937
head 1.82595 -0.759102 5.57309
rclavicle 2.59911e-014 6.36111e-015
rhumerus -44.1025 -17.6347 -75.2556
rradius 24.301
rwrist 21.2267
rhand -21.5176 20.3899
rfingers 7.12502
rthumb 4.87459 -9.53401
lclavicle 2.59911e-014 6.36111e-015
lhumerus 16.0401 21.1561 84.4791
lradius 59.1592
lwrist 64.9727
lhand -1.10296 12.5182
lfingers 7.12502
lthumb 24.5335 40.9665
rfemur -33.7612 5.34023 7.49383
rtibia 35.2265
rfoot -11.1976 -17.0772
rtoes 5.19901
lfemur 0.0142382 2.02628 -31.2274
ltibia 16.7065
lfoot -10.4957 3.07229
ltoes -18.6806
109
root 16.0843 18.6114 -1.28515 -173.756 3.55016 171.091
lowerback 0.0298648 -2.8392 -13.0863
upperback -0.149064 -3.44426 -3.07721
thorax 0.434807 -1.57856 4.0512
lowerneck -7.19623 -2.41865 -4.19854
upperneck 1.08938 -2.75913 16.3292
head 1.83998 -0.71472 5.54887
rclavicle -7.13637e-014 -2.46493e-014
rhumerus -44.7423 -18.0212 -74.7884
rradius 24.1216
rwrist 22.1313
rhand -20.6593 21.6476
rfingers 7.12502
rthumb 5.70333 -8.25567
lclavicle -7.13637e-014 -2.46493e-014
lhumerus 16.1635 20.1809 83.4122
lradius 59.9278
lwrist 62.7487
lhand -1.75567 8.71836
lfingers 7.12502
lthumb 23.9077 37.2501
rfemur -33.7561 6.11719 6.77567
rtibia 32.8101
rfoot -10.9871 -17.5101
rtoes 4.67778
lfemur 1.32502 1.90875 -31.3945
ltibia 15.1208
lfoot -9.6185 2.93108
ltoes -18.9337
110
root 16.1062 18.6224 -1.44887 -173.819 3.38485 170.945
lowerback 0.142466 -2.95075 -13.2889
upperback -0.152629 -3.61531 -2.99262
thorax 0.413888 -1.66377 4.25018
lowerneck -7.41987 -2.33492 -4.28066
upperneck 1.2919 -2.67564 16.2149
head 1.92634 -0.665788 5.53067
rclavicle -5.04913e-014 -3.33958e-014
rhumerus -45.0658 -18.8171 -73.8612
rradius 23.59
rwrist 23.6875
rhand -19.8434 24.9566
rfingers 7.12502
rthumb 6.49104 -4.92395
lclavicle -5.04913e-014 -3.33958e-014
lhumerus 16.7389 20.2991 82.9458
lradius 60.5407
lwrist 61.6697
lhand -1.25601 9.23696
lfingers 7.12502
lthumb 24.3868 37.7051
rfemur -33.6224 6.86882 6.21295
rtibia 30.5062
rfoot -10.9526 -17.6159
rtoes 3.38898
lfemur 2.86524 1.88779 -31.4242
ltibia 13.3545
lfoot -8.72155 2.72797
ltoes -18.4407
